
            <svg xmlns="http://www.w3.org/2000/svg">
                <filter id="grayscale">
                    <feColorMatrix type="saturate" values="0"/>
                </filter>
                <g filter="url(#grayscale)">
                    <svg xmlns="http://www.w3.org/2000/svg" viewBox="5.7199859619140625 160.07031433105467 563.5600280761719 254.85937499999997"> <svg xmlns="http://www.w3.org/2000/svg" id="Livello_2" viewBox="0 0 169.67999267578125 169.48001098632812" height="114.859375" width="115" y="230.07031433105467" x="75.71998596191406" preserveAspectRatio="xMinYMin" style="overflow: visible;"><circle id="Livello_2-2" class="cls-4" cx="84.84" cy="8.84" r="8.84" style="fill: #9982ed;"></circle><circle id="Livello_2-2" class="cls-1" cx="160.84" cy="84.84" r="8.84" style="fill: #fc57a5;"></circle><circle id="Livello_2-2" class="cls-2" cx="31.1" cy="138.58" r="8.84" style="fill: #ffca61;"></circle><circle id="Livello_2-2" class="cls-2" cx="112.63" cy="112.63" r="8.84" style="fill: #ffca61;"></circle><circle id="Livello_2-2" class="cls-1" cx="57.48" cy="56.38" r="8.84" style="fill: #fc57a5;"></circle><rect id="Livello_2-2" class="cls-2" x="3.39" y="72.61" width="17.68" height="24.46" rx="4.75" ry="4.75" transform="translate(97.07 72.61) rotate(90)" style="fill: #ffca61;"></rect><rect id="Livello_2-2" class="cls-3" x="36.47" y="75.61" width="17.68" height="18.46" rx="4.75" ry="4.75" transform="translate(130.15 39.53) rotate(90)" style="fill: #fbfbfb;"></rect><rect id="Livello_2-2" class="cls-6" x="121.28" y="70.27" width="17.68" height="29.14" rx="4.75" ry="4.75" transform="translate(214.97 -45.28) rotate(90)" style="fill: #5aca54;"></rect><rect id="Livello_2-2" class="cls-6" x="76" y="32.67" width="17.68" height="21.87" rx="4.75" ry="4.75" transform="translate(169.68 87.21) rotate(-180)" style="fill: #5aca54;"></rect><rect id="Livello_2-2" class="cls-1" x="44.43" y="102.28" width="17.68" height="28.25" rx="4.75" ry="4.75" transform="translate(97.92 -3.58) rotate(45)" style="fill: #fc57a5;"></rect><path id="Livello_2-2" class="cls-4" d="m129.78,124.18l-5.79,5.79c-1.85,1.85-1.85,4.86,0,6.72l11.23,11.04c1.85,1.85,4.86,1.85,6.72,0l5.79-5.79c1.85-1.85,1.85-4.86,0-6.72l-11.23-11.04c-1.85-1.85-4.86-1.85-6.72,0Z" style="fill: #9982ed;"></path><rect id="Livello_2-2" class="cls-5" x="24.84" y="21.81" width="17.68" height="23.74" rx="4.75" ry="4.75" transform="translate(81.32 33.68) rotate(135)" style="fill: #40cab7;"></rect><rect id="Livello_2-2" class="cls-6" x="76" y="145.02" width="17.68" height="24.46" rx="4.75" ry="4.75" style="fill: #5aca54;"></rect><rect id="Livello_2-2" class="cls-5" x="125.93" y="22.01" width="17.68" height="24.46" rx="4.75" ry="4.75" transform="translate(63.68 -85.27) rotate(45)" style="fill: #40cab7;"></rect><rect id="Livello_2-2" class="cls-3" x="103.79" y="46.75" width="17.68" height="19.27" rx="4.75" ry="4.75" transform="translate(72.86 -63.13) rotate(45)" style="fill: #fbfbfb;"></rect><rect id="Livello_2-2" class="cls-3" x="76" y="115.15" width="17.68" height="21.46" rx="4.75" ry="4.75" style="fill: #fbfbfb;"></rect></svg> <svg x="208.21998596191406" y="292.5800018310547" viewBox="1.0800000429153442 5.619999885559082 291.0600280761719 34.59000015258789" height="34.59000015258789" width="291.0600280761719" xmlns="http://www.w3.org/2000/svg" style="overflow: visible;"><g fill="#fbfbfb" fill-opacity="1" style=""><path d="M19.55 8.60L19.55 11.95Q18.36 13.25 16.67 15.32Q14.98 17.39 13.18 19.82Q11.38 22.25 9.63 24.82Q7.88 27.40 6.55 29.70L6.55 29.70L19.94 29.70L19.94 33.55L1.08 33.55L1.08 30.71Q1.80 29.38 2.75 27.81Q3.71 26.24 4.79 24.59Q5.87 22.93 7.04 21.24Q8.21 19.55 9.36 17.98Q10.51 16.42 11.61 14.99Q12.71 13.57 13.68 12.46L13.68 12.46L1.69 12.46L1.69 8.60L19.55 8.60ZM30.56 30.49L30.56 30.49Q32.58 30.49 33.62 30.28L33.62 30.28L33.62 25.45Q33.26 25.34 32.58 25.24Q31.90 25.13 31.07 25.13L31.07 25.13Q30.35 25.13 29.61 25.24Q28.87 25.34 28.28 25.63Q27.68 25.92 27.32 26.44Q26.96 26.96 26.96 27.76L26.96 27.76Q26.96 29.30 27.94 29.90Q28.91 30.49 30.56 30.49ZM30.20 14.26L30.20 14.26Q32.36 14.26 33.84 14.80Q35.32 15.34 36.20 16.31Q37.08 17.28 37.46 18.67Q37.84 20.05 37.84 21.71L37.84 21.71L37.84 33.12Q36.83 33.34 34.79 33.64Q32.76 33.95 30.20 33.95L30.20 33.95Q28.51 33.95 27.11 33.62Q25.70 33.30 24.71 32.58Q23.72 31.86 23.17 30.71Q22.61 29.56 22.61 27.86L22.61 27.86Q22.61 26.24 23.24 25.13Q23.87 24.01 24.95 23.31Q26.03 22.61 27.45 22.30Q28.87 22.00 30.42 22.00L30.42 22.00Q31.14 22.00 31.93 22.09Q32.72 22.18 33.62 22.39L33.62 22.39L33.62 21.67Q33.62 20.92 33.44 20.23Q33.26 19.55 32.81 19.03Q32.36 18.50 31.63 18.22Q30.89 17.93 29.77 17.93L29.77 17.93Q28.26 17.93 27.00 18.14Q25.74 18.36 24.95 18.65L24.95 18.65L24.41 15.12Q25.24 14.83 26.82 14.54Q28.40 14.26 30.20 14.26ZM55.66 24.23L55.66 24.23Q55.66 21.31 54.34 19.69Q53.03 18.07 50.11 18.07L50.11 18.07Q49.50 18.07 48.83 18.13Q48.17 18.18 47.52 18.36L47.52 18.36L47.52 29.12Q48.10 29.52 49.05 29.86Q50.00 30.20 51.08 30.20L51.08 30.20Q53.46 30.20 54.56 28.58Q55.66 26.96 55.66 24.23ZM60.12 24.16L60.12 24.16Q60.12 26.32 59.56 28.12Q59.00 29.92 57.96 31.21Q56.92 32.51 55.35 33.23Q53.78 33.95 51.80 33.95L51.80 33.95Q50.47 33.95 49.36 33.62Q48.24 33.30 47.52 32.90L47.52 32.90L47.52 40.21L43.16 40.21L43.16 15.34Q44.50 14.98 46.44 14.65Q48.38 14.33 50.54 14.33L50.54 14.33Q52.78 14.33 54.54 15.01Q56.30 15.70 57.55 16.97Q58.79 18.25 59.45 20.07Q60.12 21.89 60.12 24.16ZM69.01 14.72L69.01 33.55L64.66 33.55L64.66 14.72L69.01 14.72ZM69.48 9.22L69.48 9.22Q69.48 10.44 68.69 11.16Q67.90 11.88 66.82 11.88L66.82 11.88Q65.70 11.88 64.91 11.16Q64.12 10.44 64.12 9.22L64.12 9.22Q64.12 7.96 64.91 7.24Q65.70 6.52 66.82 6.52L66.82 6.52Q67.90 6.52 68.69 7.24Q69.48 7.96 69.48 9.22ZM73.51 24.23L73.51 24.23Q73.51 21.74 74.25 19.87Q74.99 18.00 76.21 16.76Q77.44 15.52 79.02 14.89Q80.60 14.26 82.26 14.26L82.26 14.26Q86.15 14.26 88.33 16.67Q90.50 19.08 90.50 23.87L90.50 23.87Q90.50 24.23 90.49 24.68Q90.47 25.13 90.43 25.49L90.43 25.49L78.01 25.49Q78.19 27.76 79.61 29.00Q81.04 30.24 83.74 30.24L83.74 30.24Q85.32 30.24 86.63 29.95Q87.95 29.66 88.70 29.34L88.70 29.34L89.28 32.90Q88.92 33.08 88.29 33.28Q87.66 33.48 86.85 33.64Q86.04 33.80 85.10 33.91Q84.17 34.02 83.20 34.02L83.20 34.02Q80.71 34.02 78.88 33.28Q77.04 32.54 75.85 31.23Q74.66 29.92 74.09 28.13Q73.51 26.35 73.51 24.23ZM78.05 22.28L86.15 22.28Q86.15 21.38 85.90 20.57Q85.64 19.76 85.16 19.17Q84.67 18.58 83.97 18.23Q83.27 17.89 82.30 17.89L82.30 17.89Q81.29 17.89 80.53 18.27Q79.78 18.65 79.25 19.26Q78.73 19.87 78.44 20.66Q78.16 21.46 78.05 22.28L78.05 22.28ZM95.11 33.55L95.11 15.34Q96.37 14.98 98.39 14.65Q100.40 14.33 102.85 14.33L102.85 14.33Q105.16 14.33 106.70 14.96Q108.25 15.59 109.17 16.72Q110.09 17.86 110.47 19.46Q110.84 21.06 110.84 22.97L110.84 22.97L110.84 33.55L106.49 33.55L106.49 23.65Q106.49 22.14 106.29 21.08Q106.09 20.02 105.64 19.35Q105.19 18.68 104.42 18.38Q103.64 18.07 102.53 18.07L102.53 18.07Q101.70 18.07 100.80 18.18Q99.90 18.29 99.47 18.36L99.47 18.36L99.47 33.55L95.11 33.55ZM126.00 8.60L130.21 8.60Q131.00 9.97 131.98 11.95Q132.95 13.93 133.96 16.11Q134.96 18.29 135.95 20.54Q136.94 22.79 137.77 24.70L137.77 24.70Q138.60 22.79 139.57 20.54Q140.54 18.29 141.55 16.11Q142.56 13.93 143.53 11.95Q144.50 9.97 145.30 8.60L145.30 8.60L149.40 8.60Q149.72 11.34 150.01 14.42Q150.30 17.50 150.53 20.72Q150.77 23.94 150.97 27.20Q151.16 30.46 151.31 33.55L151.31 33.55L146.84 33.55Q146.70 29.20 146.50 24.59Q146.30 19.98 145.91 15.66L145.91 15.66Q145.51 16.49 144.97 17.64Q144.43 18.79 143.82 20.14Q143.21 21.49 142.58 22.93Q141.95 24.37 141.35 25.72Q140.76 27.07 140.26 28.24Q139.75 29.41 139.39 30.24L139.39 30.24L136.01 30.24Q135.65 29.41 135.14 28.22Q134.64 27.04 134.05 25.69Q133.45 24.34 132.82 22.90Q132.19 21.46 131.58 20.12Q130.97 18.79 130.43 17.62Q129.89 16.45 129.49 15.66L129.49 15.66Q129.10 19.98 128.90 24.59Q128.70 29.20 128.56 33.55L128.56 33.55L124.09 33.55Q124.24 30.46 124.43 27.14Q124.63 23.83 124.87 20.57Q125.10 17.32 125.39 14.26Q125.68 11.20 126.00 8.60L126.00 8.60ZM155.34 24.23L155.34 24.23Q155.34 21.74 156.08 19.87Q156.82 18.00 158.04 16.76Q159.26 15.52 160.85 14.89Q162.43 14.26 164.09 14.26L164.09 14.26Q167.98 14.26 170.15 16.67Q172.33 19.08 172.33 23.87L172.33 23.87Q172.33 24.23 172.31 24.68Q172.30 25.13 172.26 25.49L172.26 25.49L159.84 25.49Q160.02 27.76 161.44 29.00Q162.86 30.24 165.56 30.24L165.56 30.24Q167.15 30.24 168.46 29.95Q169.78 29.66 170.53 29.34L170.53 29.34L171.11 32.90Q170.75 33.08 170.12 33.28Q169.49 33.48 168.68 33.64Q167.87 33.80 166.93 33.91Q166.00 34.02 165.02 34.02L165.02 34.02Q162.54 34.02 160.70 33.28Q158.87 32.54 157.68 31.23Q156.49 29.92 155.92 28.13Q155.34 26.35 155.34 24.23ZM159.88 22.28L167.98 22.28Q167.98 21.38 167.72 20.57Q167.47 19.76 166.99 19.17Q166.50 18.58 165.80 18.23Q165.10 17.89 164.12 17.89L164.12 17.89Q163.12 17.89 162.36 18.27Q161.60 18.65 161.08 19.26Q160.56 19.87 160.27 20.66Q159.98 21.46 159.88 22.28L159.88 22.28ZM180.36 24.08L180.36 24.08Q180.36 26.96 181.73 28.60Q183.10 30.24 185.51 30.24L185.51 30.24Q186.55 30.24 187.29 30.15Q188.03 30.06 188.50 29.95L188.50 29.95L188.50 19.15Q187.92 18.76 186.97 18.41Q186.01 18.07 184.93 18.07L184.93 18.07Q182.56 18.07 181.46 19.69Q180.36 21.31 180.36 24.08ZM192.85 5.62L192.85 32.98Q191.56 33.37 189.59 33.70Q187.63 34.02 185.47 34.02L185.47 34.02Q183.24 34.02 181.48 33.34Q179.71 32.65 178.47 31.37Q177.23 30.10 176.56 28.28Q175.90 26.46 175.90 24.19L175.90 24.19Q175.90 21.96 176.45 20.14Q177.01 18.32 178.09 17.03Q179.17 15.73 180.72 15.03Q182.27 14.33 184.28 14.33L184.28 14.33Q185.65 14.33 186.70 14.65Q187.74 14.98 188.50 15.37L188.50 15.37L188.50 6.34L192.85 5.62ZM202.79 14.72L202.79 33.55L198.43 33.55L198.43 14.72L202.79 14.72ZM203.26 9.22L203.26 9.22Q203.26 10.44 202.46 11.16Q201.67 11.88 200.59 11.88L200.59 11.88Q199.48 11.88 198.68 11.16Q197.89 10.44 197.89 9.22L197.89 9.22Q197.89 7.96 198.68 7.24Q199.48 6.52 200.59 6.52L200.59 6.52Q201.67 6.52 202.46 7.24Q203.26 7.96 203.26 9.22ZM214.96 30.49L214.96 30.49Q216.97 30.49 218.02 30.28L218.02 30.28L218.02 25.45Q217.66 25.34 216.97 25.24Q216.29 25.13 215.46 25.13L215.46 25.13Q214.74 25.13 214.00 25.24Q213.26 25.34 212.67 25.63Q212.08 25.92 211.72 26.44Q211.36 26.96 211.36 27.76L211.36 27.76Q211.36 29.30 212.33 29.90Q213.30 30.49 214.96 30.49ZM214.60 14.26L214.60 14.26Q216.76 14.26 218.23 14.80Q219.71 15.34 220.59 16.31Q221.47 17.28 221.85 18.67Q222.23 20.05 222.23 21.71L222.23 21.71L222.23 33.12Q221.22 33.34 219.19 33.64Q217.15 33.95 214.60 33.95L214.60 33.95Q212.90 33.95 211.50 33.62Q210.10 33.30 209.11 32.58Q208.12 31.86 207.56 30.71Q207.00 29.56 207.00 27.86L207.00 27.86Q207.00 26.24 207.63 25.13Q208.26 24.01 209.34 23.31Q210.42 22.61 211.84 22.30Q213.26 22.00 214.81 22.00L214.81 22.00Q215.53 22.00 216.32 22.09Q217.12 22.18 218.02 22.39L218.02 22.39L218.02 21.67Q218.02 20.92 217.84 20.23Q217.66 19.55 217.21 19.03Q216.76 18.50 216.02 18.22Q215.28 17.93 214.16 17.93L214.16 17.93Q212.65 17.93 211.39 18.14Q210.13 18.36 209.34 18.65L209.34 18.65L208.80 15.12Q209.63 14.83 211.21 14.54Q212.80 14.26 214.60 14.26ZM240.70 29.63L251.93 29.63L251.93 33.55L236.16 33.55L236.16 8.60L240.70 8.60L240.70 29.63ZM259.92 29.63L271.15 29.63L271.15 33.55L255.38 33.55L255.38 8.60L259.92 8.60L259.92 29.63ZM284.26 34.09L284.26 34.09Q281.45 34.09 279.22 33.23Q276.98 32.36 275.44 30.69Q273.89 29.02 273.06 26.60Q272.23 24.19 272.23 21.06L272.23 21.06Q272.23 17.93 273.19 15.52Q274.14 13.10 275.80 11.43Q277.45 9.76 279.68 8.89Q281.92 8.03 284.47 8.03L284.47 8.03Q286.02 8.03 287.28 8.26Q288.54 8.50 289.48 8.78Q290.41 9.07 291.02 9.40Q291.64 9.72 291.89 9.86L291.89 9.86L290.56 13.57Q289.69 13.03 288.09 12.55Q286.49 12.06 284.62 12.06L284.62 12.06Q283.00 12.06 281.59 12.62Q280.19 13.18 279.16 14.29Q278.14 15.41 277.56 17.10Q276.98 18.79 276.98 21.02L276.98 21.02Q276.98 23.00 277.43 24.66Q277.88 26.32 278.82 27.52Q279.76 28.73 281.20 29.39Q282.64 30.06 284.65 30.06L284.65 30.06Q287.06 30.06 288.58 29.57Q290.09 29.09 290.92 28.66L290.92 28.66L292.14 32.36Q291.71 32.65 290.97 32.94Q290.23 33.23 289.22 33.50Q288.22 33.77 286.96 33.93Q285.70 34.09 284.26 34.09Z" transform="translate(0, 0)"></path></g></svg></svg>
                </g>
            </svg>
        